<?xml version="1.0" encoding="utf-8"?>
<!-- Generator: Adobe Illustrator 25.4.3, SVG Export Plug-In . SVG Version: 6.00 Build 0)  -->
<svg version="1.1" id="Camada_1" xmlns="http://www.w3.org/2000/svg" xmlns:xlink="http://www.w3.org/1999/xlink" x="0px" y="0px"
	 viewBox="0 0 752 752" style="enable-background:new 0 0 752 752;" xml:space="preserve">
<style type="text/css">
	.st0{clip-path:url(#SVGID_00000098182928659285795310000014540868716541245349_);}
	.st1{fill:#E5B438;}
	.st2{clip-path:url(#SVGID_00000071525375914221409980000016189497083996522142_);}
	.st3{fill:#FFD65B;}
</style>
<g>
	<defs>
		<rect id="SVGID_1_" x="28.2" width="695.5" height="752"/>
	</defs>
	<clipPath id="SVGID_00000057130175789101215110000010259200344995146681_">
		<use xlink:href="#SVGID_1_"  style="overflow:visible;"/>
	</clipPath>
	<g style="clip-path:url(#SVGID_00000057130175789101215110000010259200344995146681_);">
		<path class="st1" d="M722.5,252.7v99.8h-46.8v53h-47v52.8h-53v94h53V658h47v94h-100v-47h-47v-47H423v-53h-94v53H223.2v47h-47v47
			h-100v-94h47V552.3h53v-94h-53v-52.8h-47v-53H29.4v-99.8h193.8v-47.2h53v-99.8H329V0h94v105.8h52.8v99.8h53v47.2L722.5,252.7z"/>
	</g>
</g>
<g>
	<defs>
		<rect id="SVGID_00000160908527418962562820000003027125606524519563_" x="56" y="35" width="640" height="692"/>
	</defs>
	<clipPath id="SVGID_00000031185367454672461700000013108163219836762786_">
		<use xlink:href="#SVGID_00000160908527418962562820000003027125606524519563_"  style="overflow:visible;"/>
	</clipPath>
	<g style="clip-path:url(#SVGID_00000031185367454672461700000013108163219836762786_);">
		<path class="st3" d="M694.9,267.6v91.8h-43.1v48.7h-43.2v48.6h-48.7v86.5h48.7v97.3h43.2V727h-92v-43.3h-43.2v-43.2h-97.3v-48.7
			h-86.5v48.7h-97.3v43.2h-43.2V727h-92v-86.5h43.3v-97.3h48.7v-86.5h-48.7v-48.6h-43.3v-48.7H57.1v-91.8h178.3v-43.4h48.7v-91.8
			h48.6V35h86.5v97.3h48.6v91.8h48.7v43.4L694.9,267.6z"/>
	</g>
</g>
</svg>
